<svg width="24" height="24" viewBox="0 0 24 24" fill="none" xmlns="http://www.w3.org/2000/svg">
<path fill-rule="evenodd" clip-rule="evenodd" d="M4.31 4.12999C4.31 3.44038 4.80365 3.00999 5.33 3.00999H18.67C19.2277 3.00999 19.69 3.47228 19.69 4.02999V6.24999C19.69 6.46498 19.6164 6.77456 19.4628 7.111C19.3105 7.44469 19.1204 7.71542 18.9729 7.86289C18.5824 8.25341 18.5824 8.88658 18.9729 9.2771C19.3634 9.66763 19.9966 9.66763 20.3871 9.2771C20.7396 8.92457 21.0545 8.4403 21.2822 7.94149C21.5086 7.44542 21.69 6.84501 21.69 6.24999V4.02999C21.69 2.36771 20.3323 1.00999 18.67 1.00999H5.33C3.63634 1.00999 2.31 2.39961 2.31 4.12999V6.44999C2.31 6.94449 2.46365 7.46611 2.66136 7.90682C2.86098 8.35177 3.14804 8.80913 3.5031 9.16727L7.30661 13.1689C7.43047 13.3268 7.5753 13.5747 7.69006 13.8621C7.81268 14.1692 7.87 14.4438 7.87 14.63V19.98C7.87 22.4381 10.5968 23.7433 12.5259 22.5505L12.5423 22.5402L13.9427 21.6364C14.3972 21.3555 14.7294 20.9157 14.9435 20.5037C15.1624 20.0826 15.32 19.5721 15.32 19.07C15.32 18.5177 14.8723 18.07 14.32 18.07C13.7677 18.07 13.32 18.5177 13.32 19.07C13.32 19.1779 13.2776 19.3724 13.169 19.5813C13.0577 19.7953 12.9393 19.9059 12.8906 19.9355C12.8829 19.9401 12.8753 19.9449 12.8677 19.9498L11.4672 20.8537C10.7771 21.2732 9.87 20.7593 9.87 19.98V14.63C9.87 14.1062 9.72731 13.5708 9.54744 13.1204C9.3659 12.6658 9.11526 12.2198 8.83327 11.8759C8.81779 11.857 8.80163 11.8387 8.78482 11.8211L4.94482 7.78106C4.93899 7.77493 4.93309 7.76887 4.9271 7.76289C4.77668 7.61247 4.61218 7.36913 4.48614 7.08817C4.35635 6.79887 4.31 6.5655 4.31 6.44999V4.12999ZM16.07 9.12C14.9561 9.12 13.8878 9.56249 13.1001 10.3501C12.3125 11.1378 11.87 12.2061 11.87 13.32C11.87 14.4339 12.3125 15.5022 13.1001 16.2898C13.8878 17.0775 14.9561 17.52 16.07 17.52C16.8441 17.52 17.5962 17.3063 18.2473 16.9116L19.1629 17.8271C19.5534 18.2176 20.1866 18.2176 20.5771 17.8271C20.9676 17.4366 20.9676 16.8034 20.5771 16.4129L19.6616 15.4973C20.0563 14.8462 20.27 14.0941 20.27 13.32C20.27 12.2061 19.8275 11.1378 19.0398 10.3501C18.2522 9.56249 17.1839 9.12 16.07 9.12ZM14.5144 11.7644C14.9269 11.3518 15.4865 11.12 16.07 11.12C16.6535 11.12 17.213 11.3518 17.6256 11.7644C18.0382 12.1769 18.27 12.7365 18.27 13.32C18.27 13.9035 18.0382 14.463 17.6256 14.8756C17.213 15.2882 16.6535 15.52 16.07 15.52C15.4865 15.52 14.9269 15.2882 14.5144 14.8756C14.1018 14.463 13.87 13.9035 13.87 13.32C13.87 12.7365 14.1018 12.1769 14.5144 11.7644Z" fill="white"/>
</svg>
