<svg width="25" height="26" viewBox="0 0 25 26" fill="none" xmlns="http://www.w3.org/2000/svg">
<path d="M11.4985 23.8848C5.19087 23.8848 0.055481 18.7494 0.055481 12.4419C0.055481 6.13426 5.19087 0.998871 11.4985 0.998871C17.8061 0.998871 22.9414 6.13426 22.9414 12.4419C22.9414 18.7494 17.8061 23.8848 11.4985 23.8848ZM11.4985 2.67345C6.10631 2.67345 1.73006 7.06086 1.73006 12.4419C1.73006 17.8228 6.10631 22.2102 11.4985 22.2102C16.8906 22.2102 21.2669 17.8228 21.2669 12.4419C21.2669 7.06086 16.8906 2.67345 11.4985 2.67345Z" fill="white"/>
<path d="M23.221 25.0011C23.0089 25.0011 22.7967 24.9229 22.6293 24.7555L20.3965 22.5227C20.0727 22.199 20.0727 21.6631 20.3965 21.3393C20.7203 21.0156 21.2561 21.0156 21.5799 21.3393L23.8126 23.5721C24.1364 23.8959 24.1364 24.4317 23.8126 24.7555C23.6452 24.9229 23.4331 25.0011 23.221 25.0011Z" fill="white"/>
</svg>
