<svg width="38" height="38" viewBox="0 0 38 38" fill="none" xmlns="http://www.w3.org/2000/svg">
<path d="M19 2C9.61116 2 2 9.61116 2 19C2 28.3888 9.61116 36 19 36C28.3888 36 36 28.3888 36 19C36 9.61116 28.3888 2 19 2Z" stroke="black" stroke-width="3" stroke-linecap="round" stroke-linejoin="round"/>
<path d="M5.86069 29.7877C5.86069 29.7877 9.65002 24.95 19 24.95C28.35 24.95 32.1395 29.7877 32.1395 29.7877" stroke="black" stroke-width="3" stroke-linecap="round" stroke-linejoin="round"/>
<path d="M19 19C21.8168 19 24.1 16.7167 24.1 13.9C24.1 11.0833 21.8168 8.79999 19 8.79999C16.1833 8.79999 13.9 11.0833 13.9 13.9C13.9 16.7167 16.1833 19 19 19Z" stroke="black" stroke-width="3" stroke-linecap="round" stroke-linejoin="round"/>
</svg>
